<svg width="1728" height="4694" viewBox="0 0 1728 4694" fill="none" xmlns="http://www.w3.org/2000/svg">
<g clip-path="url(#clip0_4_3)">
<g filter="url(#filter0_f_4_3)">
<ellipse cx="1847.5" cy="1266" rx="383.5" ry="364" fill="#FBBF24" fill-opacity="0.39"/>
</g>
<g filter="url(#filter1_f_4_3)">
<ellipse cx="-57.5" cy="2115" rx="383.5" ry="364" fill="#FBBF24" fill-opacity="0.39"/>
</g>
<g filter="url(#filter2_f_4_3)">
<ellipse cx="1911.4" cy="3571.87" rx="879.5" ry="364" transform="rotate(37.9459 1911.4 3571.87)" fill="#FBBF24" fill-opacity="0.39"/>
</g>
<g filter="url(#filter3_f_4_3)">
<path d="M-212.175 -129.601C-222.092 -127.746 -231.832 -125.495 -241.44 -122.947C-241.032 -118.878 -240.731 -114.78 -240.511 -110.604C-239.711 -95.4068 -225.843 -87.0202 -220.225 -74.3792C-214.883 -62.3594 -169.786 -71.1459 -155.182 -66.9733C-142.096 -63.2343 -136.786 -30.3768 -139.244 -19.3182C-141.125 -10.8534 -161.68 -1.11652 -167.257 2.8994C-186.337 16.6371 -205.777 29.2487 -225.699 41.6997C-248.143 55.7271 -251.329 73.1611 -253.713 99.6586C-257.837 145.512 -255.738 193.897 -249.527 239.404C-243.893 280.679 -237.341 326.427 -215.073 362.567C-195.621 394.137 -165.67 413.944 -134.253 432.279C-91.592 457.175 -46.774 482.633 1.3067 495.389C88.6033 518.55 194.108 492.129 265.02 437.752C299.214 411.532 323.408 372.601 314.607 328.596C302.115 266.136 260.834 212.2 260.834 147.314C260.834 129.076 269.325 115.02 278.544 99.1756C286.241 85.9457 297.024 58.9382 313.158 53.2915C342.169 43.1375 389.68 60.5237 413.781 74.8651C432.425 85.9592 459.7 111.082 460.792 134.756C462.762 177.441 460.264 220.509 460.953 263.232L460.972 264.382C461.792 315.384 462.917 385.328 503.617 422.458C591.109 502.275 744.161 435.931 823.519 376.413C851.94 355.097 883.522 328.532 886.307 290.923C887.843 270.188 886.126 250.271 877.775 231.032C849.263 165.347 782.66 120.061 728.691 76.797C660.686 22.2801 583.605 -20.2532 508.608 -64.2364C424.537 -113.541 345.11 -151.333 245.7 -156.971C147.167 -162.559 47.4115 -155.617 -50.8564 -148.116C-104.633 -144.011 -159.088 -139.534 -212.175 -129.601Z" fill="#FBBF24" fill-opacity="0.39"/>
</g>
<g filter="url(#filter4_f_4_3)">
<path d="M-362.395 4300.85L-215.718 4394.69C-208.394 4393.02 -199.944 4392.28 -193.337 4389.67C-173.993 4382.03 -168.203 4369.28 -157.204 4352.09L-156.863 4351.55C-132.639 4313.69 -107.677 4274.68 -135.467 4233.31C-164.37 4190.28 -161.814 4124.37 -144.875 4077.15C-113.395 3989.4 -46.233 3951.3 41.8566 3941.45C132.106 3931.36 162.05 4039.69 179.689 4105.11C209.554 4215.87 273.852 4293.06 373.217 4350.06C445.792 4391.69 529.054 4399.92 584.258 4328.76C676.32 4210.1 750.517 4051.97 718.082 3900.03C696.008 3796.63 656.379 3691.56 564.539 3632.04C462.983 3566.23 340.988 3580.57 228.337 3609.26C120.988 3636.59 18.2425 3684.07 -84.5503 3724.67C-174.69 3760.27 -259.827 3807.69 -352.297 3837.54C-394.026 3851.01 -442.261 3865.4 -486.465 3858.33C-506.278 3855.17 -525.429 3839.26 -541.017 3827.73C-570.76 3805.74 -614.281 3770.7 -619.041 3730.54C-625.887 3672.77 -605.203 3607.93 -600.4 3550.69C-592.005 3450.63 -584.694 3346 -585.69 3245.58C-586.082 3206.06 -590.376 3159.92 -610.87 3124.99C-633.424 3086.55 -679.973 3061.96 -718.012 3041.87L-718.635 3041.54C-759.992 3019.69 -851.536 2979.21 -887.361 3030.29C-922.016 3079.69 -941.082 3136.2 -918.84 3194.94C-895.291 3257.12 -859.836 3311.72 -829.797 3370.62C-805.968 3417.34 -783.421 3464.75 -808.386 3514.32C-830.882 3558.98 -858.574 3598.89 -877.144 3645.72C-904.582 3714.91 -894.772 3792.04 -873.262 3861.73C-836.452 3980.99 -792.763 4092.7 -675.246 4151.72C-615.205 4181.88 -550.95 4202.15 -489.222 4228.3C-443.958 4247.48 -403.641 4274.46 -362.395 4300.85Z" fill="#FBBF24" fill-opacity="0.39"/>
</g>
</g>
<defs>
<filter id="filter0_f_4_3" x="1314" y="752" width="1067" height="1028" filterUnits="userSpaceOnUse" color-interpolation-filters="sRGB">
<feFlood flood-opacity="0" result="BackgroundImageFix"/>
<feBlend mode="normal" in="SourceGraphic" in2="BackgroundImageFix" result="shape"/>
<feGaussianBlur stdDeviation="75" result="effect1_foregroundBlur_4_3"/>
</filter>
<filter id="filter1_f_4_3" x="-591" y="1601" width="1067" height="1028" filterUnits="userSpaceOnUse" color-interpolation-filters="sRGB">
<feFlood flood-opacity="0" result="BackgroundImageFix"/>
<feBlend mode="normal" in="SourceGraphic" in2="BackgroundImageFix" result="shape"/>
<feGaussianBlur stdDeviation="75" result="effect1_foregroundBlur_4_3"/>
</filter>
<filter id="filter2_f_4_3" x="1032.41" y="2809.47" width="1757.97" height="1524.8" filterUnits="userSpaceOnUse" color-interpolation-filters="sRGB">
<feFlood flood-opacity="0" result="BackgroundImageFix"/>
<feBlend mode="normal" in="SourceGraphic" in2="BackgroundImageFix" result="shape"/>
<feGaussianBlur stdDeviation="75" result="effect1_foregroundBlur_4_3"/>
</filter>
<filter id="filter3_f_4_3" x="-537" y="-299" width="1563.81" height="942.802" filterUnits="userSpaceOnUse" color-interpolation-filters="sRGB">
<feFlood flood-opacity="0" result="BackgroundImageFix"/>
<feBlend mode="normal" in="SourceGraphic" in2="BackgroundImageFix" result="shape"/>
<feGaussianBlur stdDeviation="70" result="effect1_foregroundBlur_4_3"/>
</filter>
<filter id="filter4_f_4_3" x="-1039.3" y="2894.68" width="1876.03" height="1620.71" filterUnits="userSpaceOnUse" color-interpolation-filters="sRGB">
<feFlood flood-opacity="0" result="BackgroundImageFix"/>
<feBlend mode="normal" in="SourceGraphic" in2="BackgroundImageFix" result="shape"/>
<feGaussianBlur stdDeviation="55.45" result="effect1_foregroundBlur_4_3"/>
</filter>
<clipPath id="clip0_4_3">
<rect width="1728" height="4694" fill="white"/>
</clipPath>
</defs>
</svg>
